<svg xmlns="http://www.w3.org/2000/svg" enable-background="new 0 0 64 64" viewBox="0 0 64 64" id="communication">
  <path fill="#a0aec0" d="M44 20h-8c-.6 0-1-.4-1-1s.4-1 1-1h8c.6 0 1 .4 1 1S44.6 20 44 20zM44 25h-6c-.6 0-1-.4-1-1s.4-1 1-1h6c.6 0 1 .4 1 1S44.6 25 44 25zM44 30h-4c-.6 0-1-.4-1-1s.4-1 1-1h4c.6 0 1 .4 1 1S44.6 30 44 30z"></path>
  <path fill="#a0aec0" d="M48,42.4L40.5,35h-1.4c-0.6,0-1-0.4-1-1s0.4-1,1-1h2.2l4.7,4.6V33h2c0.6,0,1-0.4,1-1V16c0-0.6-0.4-1-1-1
				H32c-0.6,0-1,0.4-1,1v3c0,0.6-0.4,1-1,1s-1-0.4-1-1v-3c0-1.7,1.3-3,3-3h16c1.7,0,3,1.3,3,3v16c0,1.7-1.3,3-3,3V42.4z"></path>
  <g>
    <path fill="#a0aec0" d="M17,51.4V44c-1.7,0-3-1.3-3-3v-1c0-0.6,0.4-1,1-1s1,0.4,1,1v1c0,0.6,0.4,1,1,1h2v4.6l4.7-4.6H33
				c0.6,0,1-0.4,1-1V25c0-0.6-0.4-1-1-1H17c-0.6,0-1,0.4-1,1v11c0,0.6-0.4,1-1,1s-1-0.4-1-1V25c0-1.7,1.3-3,3-3h16c1.7,0,3,1.3,3,3
				v16c0,1.7-1.3,3-3,3h-8.5L17,51.4z"></path>
    <path fill="#a0aec0" d="M29 29h-8c-.6 0-1-.4-1-1s.4-1 1-1h8c.6 0 1 .4 1 1S29.6 29 29 29zM27 34h-6c-.6 0-1-.4-1-1s.4-1 1-1h6c.6 0 1 .4 1 1S27.6 34 27 34zM25 39h-4c-.6 0-1-.4-1-1s.4-1 1-1h4c.6 0 1 .4 1 1S25.6 39 25 39z"></path>
  </g>
</svg>
